<svg viewBox="0 0 600 230" xmlns="http://www.w3.org/2000/svg" role="img"><line x1="200.0" x2="200.0" y1="20" y2="186" stroke="#e8e6df"/><text x="200.0" y="206" text-anchor="middle" class="t">0</text><line x1="292.5" x2="292.5" y1="20" y2="186" stroke="#e8e6df"/><text x="292.5" y="206" text-anchor="middle" class="t">10</text><line x1="385.0" x2="385.0" y1="20" y2="186" stroke="#e8e6df"/><text x="385.0" y="206" text-anchor="middle" class="t">20</text><line x1="477.5" x2="477.5" y1="20" y2="186" stroke="#e8e6df"/><text x="477.5" y="206" text-anchor="middle" class="t">30</text><line x1="570.0" x2="570.0" y1="20" y2="186" stroke="#e8e6df"/><text x="570.0" y="206" text-anchor="middle" class="t">40</text><line x1="566.3" x2="566.3" y1="20" y2="186" stroke="#1baf7a" stroke-width="2" stroke-dasharray="4 4"/><text x="560.3" y="32" text-anchor="end" class="t">best possible</text><text x="186" y="70" text-anchor="end" class="tb">Random sounds</text><circle cx="311.7" cy="58" r="6" fill="#8a887f" opacity=".55"/><circle cx="516.4" cy="65" r="6" fill="#8a887f" opacity=".55"/><circle cx="504.0" cy="72" r="6" fill="#8a887f" opacity=".55"/><circle cx="382.6" cy="58" r="6" fill="#8a887f" opacity=".55"/><circle cx="503.4" cy="65" r="6" fill="#8a887f" opacity=".55"/><circle cx="478.5" cy="72" r="6" fill="#8a887f" opacity=".55"/><circle cx="393.0" cy="58" r="6" fill="#8a887f" opacity=".55"/><circle cx="369.2" cy="65" r="6" fill="#8a887f" opacity=".55"/><line x1="432.4" x2="432.4" y1="45" y2="85" stroke="#0b0b0b" stroke-width="3"/><text x="432.4" y="39" text-anchor="middle" class="tb">25.1</text><text x="186" y="140" text-anchor="end" class="tb">Afterquiet's search</text><circle cx="423.8" cy="128" r="6" fill="#2a78d6" opacity=".55"/><circle cx="554.4" cy="135" r="6" fill="#2a78d6" opacity=".55"/><circle cx="487.8" cy="142" r="6" fill="#2a78d6" opacity=".55"/><circle cx="550.7" cy="128" r="6" fill="#2a78d6" opacity=".55"/><circle cx="502.0" cy="135" r="6" fill="#2a78d6" opacity=".55"/><circle cx="452.3" cy="142" r="6" fill="#2a78d6" opacity=".55"/><circle cx="565.7" cy="128" r="6" fill="#2a78d6" opacity=".55"/><circle cx="473.7" cy="135" r="6" fill="#2a78d6" opacity=".55"/><line x1="501.3" x2="501.3" y1="115" y2="155" stroke="#0b0b0b" stroke-width="3"/><text x="501.3" y="109" text-anchor="middle" class="tb">32.6</text><text x="385.0" y="226" text-anchor="middle" class="t">true score of the recommended sound after 25 trials</text></svg>